<?xml version="1.0" standalone="no"?>
<!DOCTYPE svg PUBLIC "-//W3C//DTD SVG 20010904//EN"
 "http://www.w3.org/TR/2001/REC-SVG-20010904/DTD/svg10.dtd">
<svg version="1.0" xmlns="http://www.w3.org/2000/svg"
 width="840.000000pt" height="859.000000pt" viewBox="0 0 840.000000 859.000000"
 preserveAspectRatio="xMidYMid meet">

<g transform="translate(0.000000,859.000000) scale(0.100000,-0.100000)"
fill="#000000" stroke="none">
<path d="M6320 2635 c0 -8 4 -15 9 -15 20 0 161 -248 161 -282 0 -8 5 -19 12
-26 7 -7 13 -57 16 -127 l5 -115 -2787 0 -2786 0 0 -45 0 -45 75 0 75 0 0
-104 c0 -83 -3 -105 -15 -110 -15 -6 -22 -56 -7 -56 5 0 46 14 92 31 71 26
101 31 186 32 96 2 102 1 137 -26 30 -23 37 -35 37 -63 0 -18 -4 -34 -10 -34
-5 0 -35 10 -66 21 -159 60 -392 -38 -449 -188 -16 -40 -16 -47 -1 -84 44
-109 174 -162 340 -139 38 6 91 21 118 35 57 29 68 30 68 11 0 -7 8 -16 18
-19 9 -4 34 -13 55 -20 l37 -15 0 239 c0 205 -2 244 -17 276 -22 46 -62 83
-111 100 -42 15 -195 17 -220 4 -9 -5 -35 -11 -57 -12 l-40 -4 0 60 0 60 293
3 292 2 0 -211 c0 -253 9 -295 75 -363 56 -58 106 -83 186 -92 80 -10 80 -10
159 0 63 8 132 35 145 56 19 31 25 -4 25 -157 0 -200 -11 -241 -81 -312 -71
-72 -171 -111 -285 -111 -63 0 -164 26 -164 42 0 5 -6 8 -13 8 -25 0 -77 75
-77 112 0 21 10 35 42 58 22 16 48 30 58 30 9 0 21 5 26 10 6 6 41 14 77 18
85 11 95 20 62 58 -14 16 -33 41 -43 56 -10 17 -25 28 -38 28 -25 0 -94 -23
-144 -48 -45 -22 -118 -97 -126 -129 -8 -31 2 -97 16 -101 5 -2 10 -9 10 -16
0 -32 142 -136 185 -136 8 0 15 -4 15 -9 0 -5 46 -14 102 -21 206 -25 384 32
461 149 58 87 57 79 57 522 0 363 -2 409 -15 409 -9 0 -28 6 -43 14 -15 7 -44
16 -64 20 l-36 7 -4 -173 -3 -173 -37 -56 c-38 -59 -97 -106 -159 -127 -65
-22 -199 24 -199 68 0 9 -6 22 -12 28 -10 10 -14 82 -16 272 l-4 259 24 6 c12
3 172 4 353 3 l330 -3 2 -245 c3 -232 6 -262 34 -310 5 -8 13 -25 18 -36 12
-27 84 -85 136 -109 29 -13 63 -19 120 -19 82 1 128 15 199 63 35 24 41 21 49
-19 4 -16 12 -30 19 -30 7 0 39 -13 71 -29 l57 -28 0 318 0 319 -75 0 -75 0 0
-163 c0 -202 -13 -248 -91 -329 -48 -49 -103 -71 -168 -66 -49 3 -64 9 -89 35
-17 17 -34 42 -38 57 -3 14 -10 29 -15 32 -5 3 -9 131 -9 285 l0 279 1063 -2
1062 -3 3 -71 c2 -59 -1 -79 -19 -110 -12 -22 -36 -66 -54 -99 -18 -33 -47
-85 -64 -115 -17 -30 -47 -85 -67 -121 -19 -37 -46 -77 -60 -90 -23 -22 -25
-22 -42 -6 -15 16 -17 41 -18 201 0 154 -3 189 -18 220 -24 50 -47 76 -68 76
-9 0 -20 5 -23 10 -12 19 -142 12 -190 -11 -25 -12 -45 -26 -45 -32 0 -6 19
-28 43 -48 l42 -38 32 34 c46 50 103 60 127 22 7 -12 8 -20 1 -25 -31 -22 -65
-106 -65 -160 0 -52 18 -120 37 -143 7 -8 13 -21 13 -28 0 -15 135 -151 150
-151 6 0 18 -7 26 -15 23 -23 75 -20 81 5 3 11 9 20 14 20 5 0 9 6 9 14 0 8 6
21 13 28 6 7 22 33 35 58 13 25 37 68 53 95 16 28 35 61 42 75 6 14 14 27 17
30 3 3 13 20 23 38 9 17 25 47 35 64 9 18 19 35 22 38 26 26 45 85 50 155 l5
80 270 0 270 0 3 -57 c3 -57 3 -58 -25 -58 -48 -1 -226 -37 -263 -53 -44 -19
-88 -62 -96 -93 -8 -30 21 -77 57 -93 37 -16 37 -33 -2 -50 -42 -18 -86 -60
-99 -95 -14 -37 1 -80 39 -115 28 -25 121 -71 143 -71 8 0 18 -4 24 -9 5 -5
52 -14 105 -20 127 -14 240 0 325 40 l64 29 0 89 0 88 -62 -62 c-35 -34 -70
-65 -78 -69 -8 -3 -29 -15 -47 -25 -30 -19 -105 -38 -185 -48 -41 -6 -133 21
-159 46 -31 30 -41 59 -28 84 16 30 50 57 75 57 11 0 24 4 30 9 5 6 51 13 102
17 l92 7 0 28 0 29 -92 0 c-69 0 -102 5 -128 18 -62 30 -49 86 30 126 43 22
198 32 283 18 l57 -9 0 39 c0 31 -5 41 -25 50 -25 11 -26 15 -23 82 l3 71 413
3 412 2 0 -145 c0 -80 -1 -145 -3 -145 -2 0 -43 38 -91 85 -48 47 -95 85 -106
85 -10 0 -22 5 -25 10 -15 24 -156 3 -187 -28 -7 -7 -16 -12 -20 -12 -14 0
-97 -92 -104 -114 -4 -12 -12 -24 -18 -28 -6 -4 -12 -40 -14 -81 -4 -68 -1
-79 27 -131 17 -31 46 -71 64 -88 46 -46 113 -98 126 -98 6 0 11 -4 11 -8 0
-16 103 -32 147 -23 54 10 86 32 145 94 l47 49 3 -48 c3 -52 0 -49 105 -97
l33 -15 2 366 3 367 110 0 110 0 3 -98 c2 -80 0 -98 -13 -103 -9 -4 -15 -18
-15 -35 0 -27 2 -29 28 -23 15 4 32 10 37 14 52 36 284 59 332 32 40 -22 53
-43 53 -83 0 -21 -1 -39 -3 -39 -2 0 -23 10 -48 22 -145 71 -384 -9 -455 -152
-25 -50 -26 -58 -15 -98 13 -49 40 -91 59 -92 6 0 12 -4 12 -10 0 -5 11 -12
25 -16 14 -3 25 -10 25 -14 0 -4 33 -13 73 -19 92 -15 198 -1 261 34 50 28 66
31 66 12 0 -10 49 -38 114 -66 5 -2 7 100 3 245 -5 225 -7 253 -26 291 -23 46
-64 83 -92 83 -10 0 -21 5 -24 10 -8 12 -175 13 -208 1 -13 -5 -39 -11 -58
-13 l-34 -3 0 60 0 60 248 3 247 2 0 45 0 45 -410 0 -410 0 0 72 c0 81 -24
216 -47 268 -45 99 -115 218 -137 232 -6 4 -44 8 -83 8 -58 0 -73 -3 -73 -15z
m88 -889 c54 -34 82 -74 82 -116 -1 -87 -145 -250 -252 -286 -45 -15 -52 -15
-90 1 -45 18 -58 30 -88 87 -42 79 -9 196 73 260 23 18 44 35 47 38 14 16 91
38 138 39 39 1 62 -5 90 -23z m-4955 -185 c6 -6 18 -11 26 -11 19 0 51 -29 51
-47 0 -23 -68 -80 -134 -114 -188 -94 -422 -53 -332 59 29 35 74 73 106 89 19
10 37 21 40 24 11 14 49 18 138 15 52 -2 98 -8 105 -15z m5805 -6 c63 -27 67
-57 13 -104 -65 -58 -142 -92 -248 -111 -61 -11 -80 -11 -115 0 -54 17 -78 37
-78 65 0 25 75 115 96 115 8 0 14 4 14 8 0 7 26 20 85 43 34 14 187 3 233 -16z"/>
<path d="M67 2494 c-3 -3 3 -16 14 -28 53 -56 149 -225 149 -261 0 -12 4 -25
9 -30 29 -32 36 -149 39 -682 l2 -543 38 -23 c20 -13 47 -29 60 -36 l23 -12
-3 638 c-3 512 -6 645 -17 673 -8 19 -21 53 -29 75 -29 78 -45 111 -86 172
l-41 63 -76 0 c-42 0 -78 -3 -82 -6z"/>
<path d="M340 2494 c0 -3 13 -23 29 -43 42 -54 111 -166 111 -182 0 -8 7 -23
15 -33 8 -11 15 -29 15 -41 0 -12 5 -26 10 -31 22 -22 30 -199 30 -692 0 -405
3 -516 13 -525 7 -7 36 -25 65 -40 l52 -28 0 604 c0 562 -1 609 -19 678 -23
88 -26 96 -62 177 -29 64 -70 126 -98 150 -15 12 -161 18 -161 6z"/>
<path d="M7919 2483 c-51 -62 -120 -199 -139 -278 -26 -111 -29 -173 -29 -737
l-1 -588 28 13 c15 6 29 14 32 18 3 3 20 14 37 24 l33 19 3 561 c3 545 9 651
37 679 5 5 10 17 10 27 0 29 84 177 133 233 14 17 24 33 21 38 -3 4 -38 8 -78
8 -57 0 -76 -4 -87 -17z"/>
<path d="M8189 2472 c-40 -47 -99 -155 -99 -181 0 -6 -3 -11 -8 -11 -7 0 -25
-63 -45 -155 -10 -51 -22 -1207 -13 -1232 4 -10 13 -8 38 7 18 11 40 23 48 27
40 19 40 14 41 530 0 475 5 588 28 678 16 64 44 140 53 143 4 2 8 12 8 22 0 9
7 23 15 30 8 7 15 17 15 22 0 9 49 77 77 106 30 32 15 42 -60 42 -68 0 -75 -2
-98 -28z"/>
<path d="M3780 1868 c-14 -6 -43 -18 -65 -26 -22 -9 -46 -22 -53 -29 -20 -19
-30 -16 -34 10 -3 20 -9 22 -70 25 l-68 3 0 -278 0 -278 43 -20 c23 -11 44
-23 47 -26 3 -4 14 -9 25 -11 19 -3 20 4 26 187 5 172 11 220 28 235 3 3 14
19 24 37 20 37 74 96 97 106 8 4 29 16 45 26 40 26 90 26 126 0 55 -39 26
-110 -60 -152 l-48 -23 47 -52 c26 -29 56 -52 66 -52 10 0 45 27 77 59 50 51
57 63 57 98 0 91 -109 174 -227 172 -32 0 -69 -5 -83 -11z"/>
</g>
</svg>
