<?xml version="1.0" standalone="no"?>
<!DOCTYPE svg PUBLIC "-//W3C//DTD SVG 20010904//EN"
 "http://www.w3.org/TR/2001/REC-SVG-20010904/DTD/svg10.dtd">
<svg version="1.0" xmlns="http://www.w3.org/2000/svg"
 width="225.000000pt" height="225.000000pt" viewBox="0 0 225.000000 225.000000"
 preserveAspectRatio="xMidYMid meet">

<g transform="translate(0.000000,225.000000) scale(0.100000,-0.100000)"
fill="#000000" stroke="none">
<path d="M535 1980 c-8 -14 3 -30 21 -30 8 0 14 9 14 20 0 21 -24 28 -35 10z
m25 -10 c0 -5 -4 -10 -10 -10 -5 0 -10 5 -10 10 0 6 5 10 10 10 6 0 10 -4 10
-10z"/>
<path d="M1915 1890 c-8 -13 3 -30 20 -30 14 0 27 24 18 34 -10 9 -31 7 -38
-4z m30 -10 c-3 -5 -10 -10 -16 -10 -5 0 -9 5 -9 10 0 6 7 10 16 10 8 0 12 -4
9 -10z"/>
<path d="M877 1884 c-14 -14 -7 -35 11 -32 9 2 17 10 17 17 0 16 -18 25 -28
15z m23 -14 c0 -5 -4 -10 -10 -10 -5 0 -10 5 -10 10 0 6 5 10 10 10 6 0 10 -4
10 -10z"/>
<path d="M1075 1800 c-3 -5 3 -10 14 -10 12 0 21 5 21 10 0 6 -6 10 -14 10 -8
0 -18 -4 -21 -10z"/>
<path d="M1140 1800 c0 -5 9 -10 21 -10 11 0 17 5 14 10 -3 6 -13 10 -21 10
-8 0 -14 -4 -14 -10z"/>
<path d="M1010 1790 c0 -5 6 -10 14 -10 8 0 18 5 21 10 3 6 -3 10 -14 10 -12
0 -21 -4 -21 -10z"/>
<path d="M1210 1790 c0 -5 9 -10 21 -10 11 0 17 5 14 10 -3 6 -13 10 -21 10
-8 0 -14 -4 -14 -10z"/>
<path d="M940 1780 c0 -5 9 -10 20 -10 11 0 20 5 20 10 0 6 -9 10 -20 10 -11
0 -20 -4 -20 -10z"/>
<path d="M1275 1780 c-4 -6 -4 -10 -1 -10 2 0 11 -3 20 -6 9 -3 16 -2 16 4 0
14 -28 23 -35 12z"/>
<path d="M875 1760 c-3 -5 3 -10 14 -10 12 0 21 5 21 10 0 6 -6 10 -14 10 -8
0 -18 -4 -21 -10z"/>
<path d="M1343 1757 c5 -15 37 -22 37 -9 0 5 -9 12 -21 15 -13 3 -19 1 -16 -6z"/>
<path d="M820 1740 c-8 -5 -11 -12 -8 -16 10 -9 38 3 38 16 0 12 -10 13 -30 0z"/>
<path d="M1400 1731 c0 -11 31 -24 39 -16 3 3 -1 10 -9 15 -19 12 -30 12 -30
1z"/>
<path d="M759 1704 c-12 -14 -11 -16 5 -13 11 2 21 10 24 17 5 17 -13 15 -29
-4z"/>
<path d="M1460 1700 c0 -13 28 -25 38 -16 3 4 0 11 -8 16 -20 13 -30 12 -30 0z"/>
<path d="M1760 1671 c0 -15 6 -21 21 -21 25 0 22 33 -4 38 -12 2 -17 -3 -17
-17z m30 -1 c0 -5 -4 -10 -10 -10 -5 0 -10 5 -10 10 0 6 5 10 10 10 6 0 10 -4
10 -10z"/>
<path d="M705 1669 c-4 -6 -5 -13 -2 -16 7 -7 27 6 27 18 0 12 -17 12 -25 -2z"/>
<path d="M1522 1659 c2 -7 10 -15 17 -17 8 -3 12 1 9 9 -2 7 -10 15 -17 17 -8
3 -12 -1 -9 -9z"/>
<path d="M657 1633 c-4 -3 -7 -13 -7 -21 0 -12 3 -12 15 -2 8 7 15 16 15 21 0
11 -14 12 -23 2z"/>
<path d="M1570 1617 c0 -8 7 -17 15 -21 8 -3 15 -2 15 3 0 5 -7 14 -15 21 -12
10 -15 10 -15 -3z"/>
<path d="M606 1574 c-4 -10 -1 -14 6 -12 15 5 23 28 10 28 -5 0 -13 -7 -16
-16z"/>
<path d="M1222 1557 c-30 -32 -43 -79 -31 -119 18 -64 26 -67 64 -26 40 43 46
88 20 138 -19 36 -25 37 -53 7z m42 -23 c12 -31 6 -72 -15 -98 -26 -33 -40
-23 -42 27 -1 34 25 87 42 87 5 0 12 -7 15 -16z"/>
<path d="M1610 1571 c0 -13 26 -32 33 -24 8 7 -11 33 -24 33 -5 0 -9 -4 -9 -9z"/>
<path d="M566 1524 c-9 -22 3 -32 14 -14 12 19 12 30 1 30 -5 0 -12 -7 -15
-16z"/>
<path d="M1657 1524 c-8 -14 8 -37 22 -33 8 3 8 10 -2 23 -8 11 -17 15 -20 10z"/>
<path d="M1443 1490 c-136 -48 -203 -147 -203 -294 0 -81 5 -87 59 -75 154 34
238 138 249 306 l5 83 -29 0 c-16 -1 -53 -9 -81 -20z m87 -53 c0 -102 -44
-191 -123 -248 -37 -27 -114 -56 -123 -46 -2 2 8 21 24 43 102 142 122 173
113 178 -5 3 -42 -42 -82 -101 l-74 -107 -3 48 c-8 119 54 212 175 262 87 36
93 34 93 -29z"/>
<path d="M530 1460 c0 -11 2 -20 5 -20 2 0 9 9 15 20 9 16 8 20 -5 20 -8 0
-15 -9 -15 -20z"/>
<path d="M1024 1447 c-12 -35 -8 -141 6 -168 23 -44 52 -68 102 -85 62 -20 70
-13 76 64 7 99 -36 161 -136 196 -40 14 -41 14 -48 -7z m81 -30 c59 -33 85
-78 85 -146 l0 -56 -20 25 c-11 14 -25 37 -31 53 -6 15 -18 27 -26 27 -15 0
-15 0 25 -63 28 -46 24 -54 -18 -37 -60 25 -98 106 -85 181 8 45 16 47 70 16z"/>
<path d="M1690 1456 c0 -15 18 -31 26 -23 7 7 -7 37 -17 37 -5 0 -9 -6 -9 -14z"/>
<path d="M285 1450 c-8 -13 3 -30 20 -30 16 0 28 27 14 35 -5 4 -8 1 -7 -6 2
-6 -3 -14 -11 -17 -10 -3 -12 0 -8 12 7 18 2 22 -8 6z"/>
<path d="M507 1414 c-4 -4 -7 -14 -7 -23 0 -11 3 -12 11 -4 6 6 10 16 7 23 -2
6 -7 8 -11 4z"/>
<path d="M1720 1396 c0 -8 5 -18 10 -21 6 -3 10 1 10 9 0 8 -4 18 -10 21 -5 3
-10 -1 -10 -9z"/>
<path d="M480 1340 c0 -11 5 -20 10 -20 6 0 10 9 10 20 0 11 -4 20 -10 20 -5
0 -10 -9 -10 -20z"/>
<path d="M773 1340 c-48 -20 -55 -71 -14 -109 16 -15 43 -55 60 -89 l31 -62
-82 -1 c-46 -1 -88 -1 -95 0 -55 7 -15 -173 61 -277 53 -72 104 -113 193 -155
65 -31 73 -32 189 -32 119 0 121 0 196 38 100 49 175 123 223 219 41 84 58
184 34 199 -7 4 -81 8 -164 8 -82 0 -213 1 -290 1 l-140 1 -57 85 c-42 61 -58
93 -58 118 0 48 -41 74 -87 56z m56 -29 c40 -40 -8 -97 -55 -66 -30 19 -31 49
-2 69 29 20 34 20 57 -3z m71 -156 c27 -41 50 -77 50 -79 0 -5 -72 3 -76 7 -5
6 -64 127 -64 131 0 2 8 7 18 9 9 3 18 5 19 6 1 0 25 -33 53 -74z m660 -120
l0 -25 -444 0 c-397 0 -445 2 -450 16 -3 9 -4 20 0 25 3 5 193 9 450 9 l444 0
0 -25z m-21 -102 c-44 -128 -156 -241 -284 -283 -56 -19 -83 -22 -163 -18 -84
3 -106 8 -164 36 -96 46 -167 115 -211 204 -20 40 -39 83 -42 96 l-6 22 445 0
445 0 -20 -57z"/>
<path d="M1415 833 c-42 -48 -109 -87 -168 -98 -39 -8 -51 -25 -18 -25 46 0
138 46 189 95 28 28 52 57 52 63 0 20 -14 12 -55 -35z"/>
<path d="M1740 1326 c0 -8 5 -18 10 -21 6 -3 10 3 10 14 0 12 -4 21 -10 21 -5
0 -10 -6 -10 -14z"/>
<path d="M467 1283 c-10 -9 -8 -33 2 -33 5 0 11 9 14 20 5 20 -3 26 -16 13z"/>
<path d="M1730 1242 c-21 -23 -30 -42 -28 -59 4 -34 48 -67 77 -58 60 19 68
76 17 122 l-34 30 -32 -35z m68 -24 c39 -39 -17 -100 -58 -63 -34 31 -20 75
25 75 12 0 26 -5 33 -12z"/>
<path d="M410 1240 c0 -15 48 -108 59 -115 11 -6 75 114 66 124 -4 3 -19 -2
-34 -10 -24 -14 -32 -14 -52 -3 -29 16 -39 17 -39 4z m77 -57 c-10 -23 -12
-24 -24 -7 -18 25 -16 32 11 32 22 0 23 -3 13 -25z"/>
<path d="M437 1032 c-21 -23 -22 -67 -1 -84 8 -7 24 -21 35 -30 22 -21 29 -22
29 -7 0 6 11 20 25 31 29 22 32 54 9 86 -19 28 -74 30 -97 4z m83 -17 c17 -20
5 -62 -20 -70 -44 -14 -80 41 -48 73 17 17 53 15 68 -3z"/>
<path d="M1741 991 c-17 -32 -27 -61 -24 -65 3 -3 18 2 33 10 24 15 29 15 58
0 18 -9 32 -12 32 -6 0 16 -54 120 -62 120 -4 0 -21 -26 -37 -59z m59 -15 c0
-6 -11 -11 -25 -11 -14 0 -25 1 -25 2 0 1 5 14 12 28 11 25 13 26 25 9 7 -10
13 -23 13 -28z"/>
<path d="M1767 905 c-4 -8 -2 -17 3 -20 6 -4 10 -4 10 -1 0 2 3 11 6 20 3 9 2
16 -4 16 -5 0 -12 -7 -15 -15z"/>
<path d="M490 861 c0 -12 5 -21 10 -21 6 0 10 6 10 14 0 8 -4 18 -10 21 -5 3
-10 -3 -10 -14z"/>
<path d="M1755 847 c-4 -10 -5 -21 -1 -24 10 -10 18 4 13 24 -4 17 -4 17 -12
0z"/>
<path d="M510 791 c0 -12 5 -21 10 -21 6 0 10 6 10 14 0 8 -4 18 -10 21 -5 3
-10 -3 -10 -14z"/>
<path d="M1738 794 c-5 -4 -8 -16 -8 -28 0 -14 3 -17 11 -9 6 6 9 19 7 28 -1
9 -6 13 -10 9z"/>
<path d="M530 743 c0 -14 19 -38 25 -32 8 8 -5 39 -16 39 -5 0 -9 -3 -9 -7z"/>
<path d="M1697 716 c-6 -16 2 -28 14 -20 12 7 11 34 0 34 -5 0 -11 -6 -14 -14z"/>
<path d="M570 678 c0 -18 18 -34 28 -24 3 4 -2 14 -11 23 -16 16 -17 16 -17 1z"/>
<path d="M1671 666 c-8 -9 -11 -19 -7 -23 9 -9 29 13 24 27 -2 8 -8 7 -17 -4z"/>
<path d="M606 632 c-7 -12 22 -38 31 -28 4 3 0 14 -9 22 -9 10 -18 12 -22 6z"/>
<path d="M1619 604 c-12 -14 -11 -16 5 -13 11 2 21 10 24 17 5 17 -13 15 -29
-4z"/>
<path d="M650 572 c0 -5 7 -13 16 -16 10 -4 14 -1 12 6 -5 15 -28 23 -28 10z"/>
<path d="M1575 559 c-4 -6 -5 -13 -2 -16 7 -7 27 6 27 18 0 12 -17 12 -25 -2z"/>
<path d="M702 528 c3 -7 13 -15 24 -17 16 -3 17 -1 5 13 -16 19 -34 21 -29 4z"/>
<path d="M1519 514 c-12 -14 -11 -16 5 -13 11 2 21 10 24 17 5 17 -13 15 -29
-4z"/>
<path d="M750 491 c0 -11 31 -24 39 -16 3 3 -1 10 -9 15 -19 12 -30 12 -30 1z"/>
<path d="M1470 480 c-8 -5 -12 -12 -9 -15 8 -8 39 5 39 16 0 11 -11 11 -30 -1z"/>
<path d="M815 450 c3 -5 13 -10 21 -10 8 0 12 5 9 10 -3 6 -13 10 -21 10 -8 0
-12 -4 -9 -10z"/>
<path d="M1410 450 c-20 -12 -5 -24 16 -12 9 5 12 12 7 15 -5 3 -15 2 -23 -3z"/>
<path d="M875 430 c-4 -6 -4 -10 -1 -10 2 0 11 -3 20 -6 9 -3 16 -2 16 4 0 14
-28 23 -35 12z"/>
<path d="M1341 421 c-7 -5 -9 -11 -4 -14 6 -4 19 0 29 8 15 11 16 14 4 15 -8
0 -21 -4 -29 -9z"/>
<path d="M945 400 c4 -7 -97 -10 -294 -10 -194 0 -301 -4 -301 -10 0 -7 265
-10 775 -10 510 0 775 3 775 10 0 6 -105 10 -294 10 -226 0 -295 3 -299 13 -3
9 -9 9 -24 0 -23 -13 -303 -15 -303 -1 0 4 -9 8 -21 8 -11 0 -17 -4 -14 -10z"/>
<path d="M180 380 c0 -5 5 -10 10 -10 6 0 10 5 10 10 0 6 -4 10 -10 10 -5 0
-10 -4 -10 -10z"/>
<path d="M240 380 c0 -5 16 -10 35 -10 19 0 35 5 35 10 0 6 -16 10 -35 10 -19
0 -35 -4 -35 -10z"/>
<path d="M1940 380 c0 -5 16 -10 35 -10 19 0 35 5 35 10 0 6 -16 10 -35 10
-19 0 -35 -4 -35 -10z"/>
<path d="M2050 380 c0 -5 5 -10 10 -10 6 0 10 5 10 10 0 6 -4 10 -10 10 -5 0
-10 -4 -10 -10z"/>
</g>
</svg>
