<svg id="Isolation_Mode" data-name="Isolation Mode" xmlns="http://www.w3.org/2000/svg" viewBox="0 0 38.26 52.56"><defs><style>.cls-1{fill:#4f3412;}.cls-1,.cls-3{fill-rule:evenodd;}.cls-2{fill:none;stroke:#fff;stroke-linecap:round;stroke-linejoin:round;stroke-width:4px;}.cls-3{fill:#fff;}</style></defs><title>logo</title><path class="cls-1" d="M21.14,6.55v1a.26.26,0,0,0,.23.22c.14,0,.22-.16.22-.31V6.73c0-.27-.05-.31-.22-.41S21.14,6.4,21.14,6.55Z" transform="translate(-2.57 -3.37)"/><path class="cls-2" d="M21.14,6.55v1a.26.26,0,0,0,.23.22c.14,0,.22-.16.22-.31V6.73c0-.27-.05-.31-.22-.41S21.14,6.4,21.14,6.55Z" transform="translate(-2.57 -3.37)"/><path class="cls-1" d="M22.05,5.37h-.23a.46.46,0,0,0-.14.32V7.46c0,.13.09.31.18.31s.28,0,.28-.18v-2C22.14,5.45,22.1,5.45,22.05,5.37Z" transform="translate(-2.57 -3.37)"/><path class="cls-2" d="M22.05,5.37h-.23a.46.46,0,0,0-.14.32V7.46c0,.13.09.31.18.31s.28,0,.28-.18v-2C22.14,5.45,22.1,5.45,22.05,5.37Z" transform="translate(-2.57 -3.37)"/><path class="cls-1" d="M22.32,6.55v1a.26.26,0,0,0,.23.22c.11,0,.22-.18.22-.27V6.68a.39.39,0,0,0-.22-.36C22.45,6.37,22.32,6.4,22.32,6.55Z" transform="translate(-2.57 -3.37)"/><path class="cls-2" d="M22.32,6.55v1a.26.26,0,0,0,.23.22c.11,0,.22-.18.22-.27V6.68a.39.39,0,0,0-.22-.36C22.45,6.37,22.32,6.4,22.32,6.55Z" transform="translate(-2.57 -3.37)"/><path class="cls-1" d="M20.5,7.73c.16,0,.12.09.19.09s.2-.09.29-.14L20.64,5.5s-.11-.09-.14-.09c-.49,0-.25.68-.19,1A10.09,10.09,0,0,1,20.5,7.73Z" transform="translate(-2.57 -3.37)"/><path class="cls-2" d="M20.5,7.73c.16,0,.12.09.19.09s.2-.09.29-.14L20.64,5.5s-.11-.09-.14-.09c-.49,0-.25.68-.19,1A10.09,10.09,0,0,1,20.5,7.73Z" transform="translate(-2.57 -3.37)"/><path class="cls-1" d="M23,7.68a.53.53,0,0,0,.28.14,1.29,1.29,0,0,0,.18-.14c0-.4.5-2.27,0-2.27C23.16,5.41,23,7.28,23,7.68Z" transform="translate(-2.57 -3.37)"/><path class="cls-2" d="M23,7.68a.53.53,0,0,0,.28.14,1.29,1.29,0,0,0,.18-.14c0-.4.5-2.27,0-2.27C23.16,5.41,23,7.28,23,7.68Z" transform="translate(-2.57 -3.37)"/><path class="cls-1" d="M19.5,6.82c.12.25.21,1.14.46,1.14h0c.15,0,0,0,.23-.1h.05l-.41-1.26h-.14C19.58,6.59,19.56,6.72,19.5,6.82Z" transform="translate(-2.57 -3.37)"/><path class="cls-2" d="M19.5,6.82c.12.25.21,1.14.46,1.14h0c.15,0,0,0,.23-.1h.05l-.41-1.26h-.14C19.58,6.59,19.56,6.72,19.5,6.82Z" transform="translate(-2.57 -3.37)"/><path class="cls-1" d="M23.68,7.77a.21.21,0,0,0,.23.19c.2,0,.45-.93.45-1.18a.18.18,0,0,0-.18-.19h-.05C23.94,6.59,23.68,7.53,23.68,7.77Z" transform="translate(-2.57 -3.37)"/><path class="cls-2" d="M23.68,7.77a.21.21,0,0,0,.23.19c.2,0,.45-.93.45-1.18a.18.18,0,0,0-.18-.19h-.05C23.94,6.59,23.68,7.53,23.68,7.77Z" transform="translate(-2.57 -3.37)"/><path class="cls-1" d="M18.42,6.09a10.35,10.35,0,0,0,.81,2.09c.14,0,.27,0,.27-.18a6.42,6.42,0,0,0-.36-1.13c-.07-.18-.3-1-.5-1h0A.2.2,0,0,0,18.42,6.09Z" transform="translate(-2.57 -3.37)"/><path class="cls-2" d="M18.42,6.09a10.35,10.35,0,0,0,.81,2.09c.14,0,.27,0,.27-.18a6.42,6.42,0,0,0-.36-1.13c-.07-.18-.3-1-.5-1h0A.2.2,0,0,0,18.42,6.09Z" transform="translate(-2.57 -3.37)"/><path class="cls-1" d="M24.36,8c.07.08.1.18.23.18h0c.21,0,.4-.76.48-1A9.32,9.32,0,0,0,25.5,6.1s-.12-.23-.23-.23h-.16Z" transform="translate(-2.57 -3.37)"/><path class="cls-2" d="M24.36,8c.07.08.1.18.23.18h0c.21,0,.4-.76.48-1A9.32,9.32,0,0,0,25.5,6.1s-.12-.23-.23-.23h-.16Z" transform="translate(-2.57 -3.37)"/><path class="cls-1" d="M18.05,7.32v0c0,.24.46,1,.68,1h.05c.09,0,.18-.08.18-.14s-.5-1.13-.68-1.13h-.05A.17.17,0,0,0,18.05,7.32Z" transform="translate(-2.57 -3.37)"/><path class="cls-2" d="M18.05,7.32v0c0,.24.46,1,.68,1h.05c.09,0,.18-.08.18-.14s-.5-1.13-.68-1.13h-.05A.17.17,0,0,0,18.05,7.32Z" transform="translate(-2.57 -3.37)"/><path class="cls-1" d="M25,8.23c0,.09.08.18.14.18.29,0,.77-.94.77-1s0,0-.09-.23h-.14C25.45,7.14,25,8.1,25,8.23Z" transform="translate(-2.57 -3.37)"/><path class="cls-2" d="M25,8.23c0,.09.08.18.14.18.29,0,.77-.94.77-1s0,0-.09-.23h-.14C25.45,7.14,25,8.1,25,8.23Z" transform="translate(-2.57 -3.37)"/><path class="cls-1" d="M16.78,6.82v0A6.83,6.83,0,0,0,18.1,8.73c.15,0,0,0,.23-.09V8.5A6.83,6.83,0,0,0,17,6.64C16.9,6.64,16.78,6.7,16.78,6.82Z" transform="translate(-2.57 -3.37)"/><path class="cls-2" d="M16.78,6.82v0A6.83,6.83,0,0,0,18.1,8.73c.15,0,0,0,.23-.09V8.5A6.83,6.83,0,0,0,17,6.64C16.9,6.64,16.78,6.7,16.78,6.82Z" transform="translate(-2.57 -3.37)"/><path class="cls-1" d="M25.54,8.55c0,.07.18.18.27.18a5.74,5.74,0,0,0,.67-.88l.65-.94c0-.11-.1-.27-.23-.27A7.81,7.81,0,0,0,25.54,8.55Z" transform="translate(-2.57 -3.37)"/><path class="cls-2" d="M25.54,8.55c0,.07.18.18.27.18a5.74,5.74,0,0,0,.67-.88l.65-.94c0-.11-.1-.27-.23-.27A7.81,7.81,0,0,0,25.54,8.55Z" transform="translate(-2.57 -3.37)"/><path class="cls-1" d="M16.74,8.18c0,.11.63.91.81.91s.23-.06.23-.18V8.86c0-.1-.67-.95-.86-.95S16.74,8,16.74,8.18Z" transform="translate(-2.57 -3.37)"/><path class="cls-2" d="M16.74,8.18c0,.11.63.91.81.91s.23-.06.23-.18V8.86c0-.1-.67-.95-.86-.95S16.74,8,16.74,8.18Z" transform="translate(-2.57 -3.37)"/><path class="cls-1" d="M26.09,8.91c.05.08.09.18.22.18h.05a2.84,2.84,0,0,0,.81-.91c0-.14,0-.27-.18-.27h0C26.8,7.91,26.17,8.75,26.09,8.91Z" transform="translate(-2.57 -3.37)"/><path class="cls-2" d="M26.09,8.91c.05.08.09.18.22.18h.05a2.84,2.84,0,0,0,.81-.91c0-.14,0-.27-.18-.27h0C26.8,7.91,26.17,8.75,26.09,8.91Z" transform="translate(-2.57 -3.37)"/><path class="cls-1" d="M15.51,7.91A8.43,8.43,0,0,0,17.1,9.54c.11,0,.23-.06.23-.18a7.54,7.54,0,0,0-1.59-1.68h-.05C15.57,7.68,15.51,7.8,15.51,7.91Z" transform="translate(-2.57 -3.37)"/><path class="cls-2" d="M15.51,7.91A8.43,8.43,0,0,0,17.1,9.54c.11,0,.23-.06.23-.18a7.54,7.54,0,0,0-1.59-1.68h-.05C15.57,7.68,15.51,7.8,15.51,7.91Z" transform="translate(-2.57 -3.37)"/><path class="cls-1" d="M26.58,9.36a.18.18,0,0,0,.19.18h0A17,17,0,0,0,28.4,8c0-.09-.11-.28-.23-.28h0A6.56,6.56,0,0,0,26.58,9.36Z" transform="translate(-2.57 -3.37)"/><path class="cls-2" d="M26.58,9.36a.18.18,0,0,0,.19.18h0A17,17,0,0,0,28.4,8c0-.09-.11-.28-.23-.28h0A6.56,6.56,0,0,0,26.58,9.36Z" transform="translate(-2.57 -3.37)"/><path class="cls-1" d="M15.65,9.14c0,.19.85.86,1,.86h0a.18.18,0,0,0,.18-.18V9.77A3,3,0,0,0,15.92,9h-.09C15.72,9,15.65,9.08,15.65,9.14Z" transform="translate(-2.57 -3.37)"/><path class="cls-2" d="M15.65,9.14c0,.19.85.86,1,.86h0a.18.18,0,0,0,.18-.18V9.77A3,3,0,0,0,15.92,9h-.09C15.72,9,15.65,9.08,15.65,9.14Z" transform="translate(-2.57 -3.37)"/><path class="cls-1" d="M27,9.77l0,.18c.13,0,.09.05.19.05a2.85,2.85,0,0,0,1-.82c0-.11-.06-.23-.18-.23H28C27.76,9,27.18,9.6,27,9.77Z" transform="translate(-2.57 -3.37)"/><path class="cls-2" d="M27,9.77l0,.18c.13,0,.09.05.19.05a2.85,2.85,0,0,0,1-.82c0-.11-.06-.23-.18-.23H28C27.76,9,27.18,9.6,27,9.77Z" transform="translate(-2.57 -3.37)"/><path class="cls-3" d="M20.15,12.9a4.26,4.26,0,0,0-1.06,1.58,1.43,1.43,0,0,0,.58,1.79,3.58,3.58,0,0,0,.92.45c.54.2.69,0,.68.63,0,.89.05,1.67.05,2.59,0,.24-.17.59-.41.59s-.7-1.18-.85-1.42a6.23,6.23,0,0,0-1-1.27,5.45,5.45,0,0,0-.64-.5,4.3,4.3,0,0,1-.58-.55,2.58,2.58,0,0,1-.6-1.66,4,4,0,0,1,.59-1.27C17.4,12,16.4,9.73,14.2,9.73h-.32c-1.59,0-3.65,1.8-4.51,2.66a8.64,8.64,0,0,0-2,5.19v.54a9,9,0,0,0,.89,3.65c.52,1,.92,2.1,1.42,3.11.26.52.47,1,.7,1.57s.53,1,.77,1.5c.38.77,1.35,2.11,1.35,3.15v.32l-.12.91a7.77,7.77,0,0,0,1.56-1,13.37,13.37,0,0,0,1.2-1.29,8.5,8.5,0,0,0,1-1.56c.1-.25.62-1.74.69-1.81A4.88,4.88,0,0,0,18,29.1c.49.67,1.59,1.22,1.86,1.64-.29.43-.37.26-.65.94a2,2,0,0,0,0,1.27c.41.88,1,1,1.44,1.64-.42.28-1.23,1.09-1.23,1.73v.18c0,.83.69,1.16,1.23,1.45-.27.4-1.28,1.58-1.18,2.23l.06.36c.57.88.58.64,1.39,1.18A6.3,6.3,0,0,0,21.73,44a4.6,4.6,0,0,0,1-2.22,2.8,2.8,0,0,0,1.41-2V39.4a3.16,3.16,0,0,0-.41-1.09c.35-.52,1-1,1-1.9v-.09a3.37,3.37,0,0,0-.82-2,6.33,6.33,0,0,0,.5-1.59v-.32a2.77,2.77,0,0,0-.82-1.72c1.49-1,3.36-2,3.36-4.45H27a7.63,7.63,0,0,0,.61,2,7.06,7.06,0,0,0,1,1.65,7.21,7.21,0,0,0,2.86,2.36l-.17-.9,0-.14c0-1.34.86-2.35,1.32-3.27s1-2.07,1.48-3.1.91-2.11,1.44-3.14a9,9,0,0,0,.89-3.65v-.54a8.58,8.58,0,0,0-2-5.19c-.86-.86-2.91-2.66-4.5-2.66h-.32a2.92,2.92,0,0,0-2.47,1.38,10.44,10.44,0,0,0-.68,1.23A10.33,10.33,0,0,0,26,13.76v.05c0,.08.59.95.59,1.36A2.59,2.59,0,0,1,26,16.82c-.25.24-.33.32-.59.54a7.84,7.84,0,0,0-.64.5,6,6,0,0,0-1,1.28c-.14.23-.62,1.39-.84,1.39s-.4-.37-.4-.64c0-.93.05-1.72,0-2.63,0-.39,0-.33.28-.4a4.87,4.87,0,0,0,.47-.17,2.9,2.9,0,0,0,.88-.44,1.37,1.37,0,0,0,.53-1.79,3.74,3.74,0,0,0-1.07-1.56c.18-.37-.2-.83-.43-1a2.18,2.18,0,0,0-1.2-.29h-.41a3.2,3.2,0,0,0-.88.26c-.36.17-.35.36-.58.51Zm-8.9-1.41a6.07,6.07,0,0,1,1.24-.71,6.85,6.85,0,0,1,1.71-.24,3,3,0,0,1,2.85,3.22v.05l-.05.41-.34-.33a3,3,0,0,0-1.78-2.53A3.74,3.74,0,0,0,13,11.13a5.55,5.55,0,0,0-.95.15,5.94,5.94,0,0,1-.78.26Zm15.56,2.27a3.05,3.05,0,0,1,2.86-3.22,6.85,6.85,0,0,1,1.71.24,3.55,3.55,0,0,1,.68.32,3.21,3.21,0,0,1,.3.21l.11.1.09.06s.08,0,.06,0l0,.06a5.42,5.42,0,0,0-2-.42,3.42,3.42,0,0,0-1.89.34,2.83,2.83,0,0,0-1.13,1.17c-.21.42-.4,1.49-.74,1.58l-.06-.41ZM21,12.49c0-.32.52-.36.86-.36h.36l.5,0c.12.17.23.1.23.36s-.55.23-.73.23h-.27C21.63,12.77,21,12.71,21,12.49Zm1.22,1c.16,0,.86-.19.86-.18l.06,0a2.22,2.22,0,0,1-1,.28H22a1.77,1.77,0,0,1-1.09-.27,7.1,7.1,0,0,0,.81.14Zm-1.13,1.18c0-.37,0-.5.41-.5a2.91,2.91,0,0,1,.31,0,.56.56,0,0,1,.05.23v0c0,.18-.23.23-.41.23h-.14A.72.72,0,0,1,21.05,14.63Zm1.68.13c0-.2.18-.43.22-.59h.37c.55,0,.8.83.56,1.15s-1.15.34-1.15-.24Zm-11.67,9.8a12.47,12.47,0,0,1,1.11-4.38,7.5,7.5,0,0,1,1-1.73,2.59,2.59,0,0,1,.71-.65,5.41,5.41,0,0,1,1-.41c.21.12.72.45.72.73a1.21,1.21,0,0,1-.77,1c0,.28.27.65.27.95,0,.52-.28.52-.59.68a2.23,2.23,0,0,1,.52,1c.11.58-.34.72-.52,1a.48.48,0,0,1,.23.41.76.76,0,0,1-.5.68c.11.41.5.54.5,1.36,0,.35-.42.52-.73.59.1.13.28.19.41.41a1.28,1.28,0,0,1,.18.59c0,.44-.15.86-.63.86a2.08,2.08,0,0,1-1.27.82c-.52,0-1-.95-1.21-1.34A5.07,5.07,0,0,1,11.06,25Zm18.2,2.23a1.34,1.34,0,0,1,.2-.62c.13-.2.31-.26.39-.38-.34-.08-.72-.22-.72-.64,0-.75.39-.93.5-1.31a.76.76,0,0,1-.5-.68c0-.17.08-.37.22-.41-.18-.25-.63-.39-.52-1a2.44,2.44,0,0,1,.52-1c-.26-.14-.59-.19-.59-.59v-.09a4.24,4.24,0,0,1,.27-.95,1.18,1.18,0,0,1-.77-1c0-.28.51-.61.73-.73a5.33,5.33,0,0,1,1,.43,2.49,2.49,0,0,1,.71.66,6.65,6.65,0,0,1,1,1.7,12.1,12.1,0,0,1,1.11,4.38v.69c0,1.1-.76,3.22-1.72,3.22a2.3,2.3,0,0,1-1.18-.82C29.41,27.65,29.26,27.23,29.26,26.79Zm-8.77-3a2.29,2.29,0,0,1,.24,1.34,29.62,29.62,0,0,0,0,3.14,7.55,7.55,0,0,1-1.37-1.55v-.09c0-.41,1.32-.91,1.32-1.36v-.23c0-.58-1-1-1.63-1H18.6a2.16,2.16,0,0,0-1,.36c-.31.23-.4.55-.59.68l.06-.58V22.79a6.93,6.93,0,0,0-1.27-3A1.44,1.44,0,0,1,17,19.3h.09a2.1,2.1,0,0,1,1.08.51c.41.39.29.56.29,1.31a2,2,0,0,0,1.15,2C20.07,23.3,20.26,23.36,20.49,23.81Zm4.91-3.65c.34-.24.72-.86,1.41-.86h.09a1.44,1.44,0,0,1,1.14.5,6.81,6.81,0,0,0-1.27,3v1.68l.05.59c-.28-.31-.24-.49-.65-.85a1.65,1.65,0,0,0-1.08-.37,3.25,3.25,0,0,0-1.17.29c-.54.27-.46.2-.78.66a1.84,1.84,0,0,1,.46-1.31c.27-.28.75-.29,1.13-.59a2.16,2.16,0,0,0,.65-1.12A4.84,4.84,0,0,0,25.4,20.16Zm-3.49-2.49H22c0,.75.09,1.52.09,2.22s.07,1.45.81,1.45c.28,0,1.37-1.29,1.68-1.49.08,0,.23.14.23.27v.13c0,1.64-.67,1.89-1.58,2.6a1.39,1.39,0,0,0-.68,1.39,12.65,12.65,0,0,1,.13,1.91v2.63c0,.17-1.13.86-1.32,1l-.1-1.14V26.29a13.38,13.38,0,0,1,.11-2,2.08,2.08,0,0,0-.52-1.56c-.18-.14-.5-.15-.76-.32a1.73,1.73,0,0,1-.54-.5,3,3,0,0,1-.42-1.72v0c0-.13.14-.22.22-.27.32.2,1.46,1.49,1.73,1.49s.48-.32.72-.45Zm-4.4,8.57a1.4,1.4,0,0,1,1.31-1.49c.57,0,.74.23,1.05.31-.1.39-1.32.69-1.32,1.64s1.58,2,2,2.58l.05.68c0,.07-.17.14-.23.23C19.26,29.45,17.51,28,17.51,26.24ZM23.86,25c.34-.08.61-.36,1.09-.36h.23c.77,0,1.09.87,1.09,1.68v.14c0,1.86-1.48,2.53-2.57,3.33-.59.42-1.12.82-1.74,1.21s-1.46.59-1.46,1.49v.41l.06.59a1.56,1.56,0,0,1-.73-1.23v0c0-.69.81-1.13,1.26-1.42s1.08-.68,1.63-1.05a8.8,8.8,0,0,0,1.55-1.13c.28-.28,1.14-1.12,1.14-1.57v-.23C25.4,25.88,23.88,25.7,23.86,25Zm-.68.5a4.71,4.71,0,0,0,.71.7c.09.07.79.59.79.62,0,.54-1.12,1.47-1.5,1.72Zm-.73,6.4.73-.54a2.48,2.48,0,0,1,.55,1.27,4.08,4.08,0,0,1-1.31,2.46c-.26.27-1.61,1.84-1.73,2.08a.73.73,0,0,1-.52-.54c-.08-.36.12-.54.24-.78a5.5,5.5,0,0,1,1.12-1A2.41,2.41,0,0,0,22.45,31.87Zm-1.24.64c0-.28.32-.46.52-.5a2.71,2.71,0,0,1,.18.68v.18c0,.39-.27,1-.55,1Zm.47,4.63.82-1C22.47,36.53,22,37.11,21.68,37.14Zm-1,3.58c-.19,0-.46-.28-.46-.45v-.14a4.12,4.12,0,0,1,.71-1.38,2.63,2.63,0,0,1,.49-.55,5.89,5.89,0,0,0,.66-.38c1.05-.61,1.15-1.47,1.45-2.77a1.76,1.76,0,0,1,.38,1.74,4.68,4.68,0,0,1-1,1.4C22.47,38.54,20.73,40.17,20.69,40.72Zm2.2-1.45.38-.37c.24,1,.28,1.17-.35,1.91Zm-.84.77,0,.86v.77c0,.71-.22.74-.32,1.14h-.09a6.69,6.69,0,0,1-.31-1.59A1.54,1.54,0,0,1,22.05,40Z" transform="translate(-2.57 -3.37)"/><path class="cls-2" d="M20.15,12.9a4.26,4.26,0,0,0-1.06,1.58,1.43,1.43,0,0,0,.58,1.79,3.58,3.58,0,0,0,.92.45c.54.2.69,0,.68.63,0,.89.05,1.67.05,2.59,0,.24-.17.59-.41.59s-.7-1.18-.85-1.42a6.23,6.23,0,0,0-1-1.27,5.45,5.45,0,0,0-.64-.5,4.3,4.3,0,0,1-.58-.55,2.58,2.58,0,0,1-.6-1.66,4,4,0,0,1,.59-1.27C17.4,12,16.4,9.73,14.2,9.73h-.32c-1.59,0-3.65,1.8-4.51,2.66a8.64,8.64,0,0,0-2,5.19v.54a9,9,0,0,0,.89,3.65c.52,1,.92,2.1,1.42,3.11.26.52.47,1,.7,1.57s.53,1,.77,1.5c.38.77,1.35,2.11,1.35,3.15v.32l-.12.91a7.77,7.77,0,0,0,1.56-1,13.37,13.37,0,0,0,1.2-1.29,8.5,8.5,0,0,0,1-1.56c.1-.25.62-1.74.69-1.81A4.88,4.88,0,0,0,18,29.1c.49.67,1.59,1.22,1.86,1.64-.29.43-.37.26-.65.94a2,2,0,0,0,0,1.27c.41.88,1,1,1.44,1.64-.42.28-1.23,1.09-1.23,1.73v.18c0,.83.69,1.16,1.23,1.45-.27.4-1.28,1.58-1.18,2.23l.06.36c.57.88.58.64,1.39,1.18A6.3,6.3,0,0,0,21.73,44a4.6,4.6,0,0,0,1-2.22,2.8,2.8,0,0,0,1.41-2V39.4a3.16,3.16,0,0,0-.41-1.09c.35-.52,1-1,1-1.9v-.09a3.37,3.37,0,0,0-.82-2,6.33,6.33,0,0,0,.5-1.59v-.32a2.77,2.77,0,0,0-.82-1.72c1.49-1,3.36-2,3.36-4.45H27a7.63,7.63,0,0,0,.61,2,7.06,7.06,0,0,0,1,1.65,7.21,7.21,0,0,0,2.86,2.36l-.17-.9,0-.14c0-1.34.86-2.35,1.32-3.27s1-2.07,1.48-3.1.91-2.11,1.44-3.14a9,9,0,0,0,.89-3.65v-.54a8.58,8.58,0,0,0-2-5.19c-.86-.86-2.91-2.66-4.5-2.66h-.32a2.92,2.92,0,0,0-2.47,1.38,10.44,10.44,0,0,0-.68,1.23A10.33,10.33,0,0,0,26,13.76v.05c0,.08.59.95.59,1.36A2.59,2.59,0,0,1,26,16.82c-.25.24-.33.32-.59.54a7.84,7.84,0,0,0-.64.5,6,6,0,0,0-1,1.28c-.14.23-.62,1.39-.84,1.39s-.4-.37-.4-.64c0-.93.05-1.72,0-2.63,0-.39,0-.33.28-.4a4.87,4.87,0,0,0,.47-.17,2.9,2.9,0,0,0,.88-.44,1.37,1.37,0,0,0,.53-1.79,3.74,3.74,0,0,0-1.07-1.56c.18-.37-.2-.83-.43-1a2.18,2.18,0,0,0-1.2-.29h-.41a3.2,3.2,0,0,0-.88.26c-.36.17-.35.36-.58.51Zm-8.9-1.41a6.07,6.07,0,0,1,1.24-.71,6.85,6.85,0,0,1,1.71-.24,3,3,0,0,1,2.85,3.22v.05l-.05.41-.34-.33a3,3,0,0,0-1.78-2.53A3.74,3.74,0,0,0,13,11.13a5.55,5.55,0,0,0-.95.15,5.94,5.94,0,0,1-.78.26Zm15.56,2.27a3.05,3.05,0,0,1,2.86-3.22,6.85,6.85,0,0,1,1.71.24,3.55,3.55,0,0,1,.68.32,3.21,3.21,0,0,1,.3.21l.11.1.09.06s.08,0,.06,0l0,.06a5.42,5.42,0,0,0-2-.42,3.42,3.42,0,0,0-1.89.34,2.83,2.83,0,0,0-1.13,1.17c-.21.42-.4,1.49-.74,1.58l-.06-.41ZM21,12.49c0-.32.52-.36.86-.36h.36l.5,0c.12.17.23.1.23.36s-.55.23-.73.23h-.27C21.63,12.77,21,12.71,21,12.49Zm1.22,1c.16,0,.86-.19.86-.18l.06,0a2.22,2.22,0,0,1-1,.28H22a1.77,1.77,0,0,1-1.09-.27,7.1,7.1,0,0,0,.81.14Zm-1.13,1.18c0-.37,0-.5.41-.5a2.91,2.91,0,0,1,.31,0,.56.56,0,0,1,.05.23v0c0,.18-.23.23-.41.23h-.14A.72.72,0,0,1,21.05,14.63Zm1.68.13c0-.2.18-.43.22-.59h.37c.55,0,.8.83.56,1.15s-1.15.34-1.15-.24Zm-11.67,9.8a12.47,12.47,0,0,1,1.11-4.38,7.5,7.5,0,0,1,1-1.73,2.59,2.59,0,0,1,.71-.65,5.41,5.41,0,0,1,1-.41c.21.12.72.45.72.73a1.21,1.21,0,0,1-.77,1c0,.28.27.65.27.95,0,.52-.28.52-.59.68a2.23,2.23,0,0,1,.52,1c.11.58-.34.72-.52,1a.48.48,0,0,1,.23.41.76.76,0,0,1-.5.68c.11.41.5.54.5,1.36,0,.35-.42.52-.73.59.1.13.28.19.41.41a1.28,1.28,0,0,1,.18.59c0,.44-.15.86-.63.86a2.08,2.08,0,0,1-1.27.82c-.52,0-1-.95-1.21-1.34A5.07,5.07,0,0,1,11.06,25Zm18.2,2.23a1.34,1.34,0,0,1,.2-.62c.13-.2.31-.26.39-.38-.34-.08-.72-.22-.72-.64,0-.75.39-.93.5-1.31a.76.76,0,0,1-.5-.68c0-.17.08-.37.22-.41-.18-.25-.63-.39-.52-1a2.44,2.44,0,0,1,.52-1c-.26-.14-.59-.19-.59-.59v-.09a4.24,4.24,0,0,1,.27-.95,1.18,1.18,0,0,1-.77-1c0-.28.51-.61.73-.73a5.33,5.33,0,0,1,1,.43,2.49,2.49,0,0,1,.71.66,6.65,6.65,0,0,1,1,1.7,12.1,12.1,0,0,1,1.11,4.38v.69c0,1.1-.76,3.22-1.72,3.22a2.3,2.3,0,0,1-1.18-.82C29.41,27.65,29.26,27.23,29.26,26.79Zm-8.77-3a2.29,2.29,0,0,1,.24,1.34,29.62,29.62,0,0,0,0,3.14,7.55,7.55,0,0,1-1.37-1.55v-.09c0-.41,1.32-.91,1.32-1.36v-.23c0-.58-1-1-1.63-1H18.6a2.16,2.16,0,0,0-1,.36c-.31.23-.4.55-.59.68l.06-.58V22.79a6.93,6.93,0,0,0-1.27-3A1.44,1.44,0,0,1,17,19.3h.09a2.1,2.1,0,0,1,1.08.51c.41.39.29.56.29,1.31a2,2,0,0,0,1.15,2C20.07,23.3,20.26,23.36,20.49,23.81Zm4.91-3.65c.34-.24.72-.86,1.41-.86h.09a1.44,1.44,0,0,1,1.14.5,6.81,6.81,0,0,0-1.27,3v1.68l.05.59c-.28-.31-.24-.49-.65-.85a1.65,1.65,0,0,0-1.08-.37,3.25,3.25,0,0,0-1.17.29c-.54.27-.46.2-.78.66a1.84,1.84,0,0,1,.46-1.31c.27-.28.75-.29,1.13-.59a2.16,2.16,0,0,0,.65-1.12A4.84,4.84,0,0,0,25.4,20.16Zm-3.49-2.49H22c0,.75.09,1.52.09,2.22s.07,1.45.81,1.45c.28,0,1.37-1.29,1.68-1.49.08,0,.23.14.23.27v.13c0,1.64-.67,1.89-1.58,2.6a1.39,1.39,0,0,0-.68,1.39,12.65,12.65,0,0,1,.13,1.91v2.63c0,.17-1.13.86-1.32,1l-.1-1.14V26.29a13.38,13.38,0,0,1,.11-2,2.08,2.08,0,0,0-.52-1.56c-.18-.14-.5-.15-.76-.32a1.73,1.73,0,0,1-.54-.5,3,3,0,0,1-.42-1.72v0c0-.13.14-.22.22-.27.32.2,1.46,1.49,1.73,1.49s.48-.32.72-.45Zm-4.4,8.57a1.4,1.4,0,0,1,1.31-1.49c.57,0,.74.23,1.05.31-.1.39-1.32.69-1.32,1.64s1.58,2,2,2.58l.05.68c0,.07-.17.14-.23.23C19.26,29.45,17.51,28,17.51,26.24ZM23.86,25c.34-.08.61-.36,1.09-.36h.23c.77,0,1.09.87,1.09,1.68v.14c0,1.86-1.48,2.53-2.57,3.33-.59.42-1.12.82-1.74,1.21s-1.46.59-1.46,1.49v.41l.06.59a1.56,1.56,0,0,1-.73-1.23v0c0-.69.81-1.13,1.26-1.42s1.08-.68,1.63-1.05a8.8,8.8,0,0,0,1.55-1.13c.28-.28,1.14-1.12,1.14-1.57v-.23C25.4,25.88,23.88,25.7,23.86,25Zm-.68.5a4.71,4.71,0,0,0,.71.7c.09.07.79.59.79.62,0,.54-1.12,1.47-1.5,1.72Zm-.73,6.4.73-.54a2.48,2.48,0,0,1,.55,1.27,4.08,4.08,0,0,1-1.31,2.46c-.26.27-1.61,1.84-1.73,2.08a.73.73,0,0,1-.52-.54c-.08-.36.12-.54.24-.78a5.5,5.5,0,0,1,1.12-1A2.41,2.41,0,0,0,22.45,31.87Zm-1.24.64c0-.28.32-.46.52-.5a2.71,2.71,0,0,1,.18.68v.18c0,.39-.27,1-.55,1Zm.47,4.63.82-1C22.47,36.53,22,37.11,21.68,37.14Zm-1,3.58c-.19,0-.46-.28-.46-.45v-.14a4.12,4.12,0,0,1,.71-1.38,2.63,2.63,0,0,1,.49-.55,5.89,5.89,0,0,0,.66-.38c1.05-.61,1.15-1.47,1.45-2.77a1.76,1.76,0,0,1,.38,1.74,4.68,4.68,0,0,1-1,1.4C22.47,38.54,20.73,40.17,20.69,40.72Zm2.2-1.45.38-.37c.24,1,.28,1.17-.35,1.91Zm-.84.77,0,.86v.77c0,.71-.22.74-.32,1.14h-.09a6.69,6.69,0,0,1-.31-1.59A1.54,1.54,0,0,1,22.05,40Z" transform="translate(-2.57 -3.37)"/><path class="cls-3" d="M28.58,53.47a10.92,10.92,0,0,1,.07-1.15c.06-.36,0-.27.33-.3l.51-.09c.71-.08,1.45-.22,2.13-.27l.57,1.07,2.6-.37-4.52-7.54-2.59.45-1.57,8.48Zm.36-3.71.48-2.38,1.29,2.13L29,49.8Z" transform="translate(-2.57 -3.37)"/><path class="cls-2" d="M28.58,53.47a10.92,10.92,0,0,1,.07-1.15c.06-.36,0-.27.33-.3l.51-.09c.71-.08,1.45-.22,2.13-.27l.57,1.07,2.6-.37-4.52-7.54-2.59.45-1.57,8.48Zm.36-3.71.48-2.38,1.29,2.13L29,49.8Z" transform="translate(-2.57 -3.37)"/><path class="cls-3" d="M38.84,51.2v-.13l-3.5-7.44a15.39,15.39,0,0,0-2.13,1.22s1.57,3.27,1.74,3.61,1.69,3.42,1.71,3.61Z" transform="translate(-2.57 -3.37)"/><path class="cls-2" d="M38.84,51.2v-.13l-3.5-7.44a15.39,15.39,0,0,0-2.13,1.22s1.57,3.27,1.74,3.61,1.69,3.42,1.71,3.61Z" transform="translate(-2.57 -3.37)"/><path class="cls-3" d="M4.57,49.39v0l2.24,1.12a6.73,6.73,0,0,1,.81-1.12c.22,0,2.22,1.12,2.67,1.23l-.1,1.27,2.41,1,.28-8.81c-.47,0-2.08-1-2.45-1,0,0-2.73,2.85-2.92,3.11S4.73,49.28,4.57,49.39Zm6.22-3.59-.09,2.54-1.62-.71Z" transform="translate(-2.57 -3.37)"/><path class="cls-2" d="M4.57,49.39v0l2.24,1.12a6.73,6.73,0,0,1,.81-1.12c.22,0,2.22,1.12,2.67,1.23l-.1,1.27,2.41,1,.28-8.81c-.47,0-2.08-1-2.45-1,0,0-2.73,2.85-2.92,3.11S4.73,49.28,4.57,49.39Zm6.22-3.59-.09,2.54-1.62-.71Z" transform="translate(-2.57 -3.37)"/><path class="cls-3" d="M23.5,53.93H24l.7-8.08-3.24-.28-1.7,4.19-.9-4.55-3.25-.33L14.78,53l2,.35.75-5.26.89,5.37,2,.33,1.93-5.15c0,1-.25,2.32-.25,3.36,0,.49-.16,1.26-.14,1.68S23.2,53.74,23.5,53.93Z" transform="translate(-2.57 -3.37)"/><path class="cls-2" d="M23.5,53.93H24l.7-8.08-3.24-.28-1.7,4.19-.9-4.55-3.25-.33L14.78,53l2,.35.75-5.26.89,5.37,2,.33,1.93-5.15c0,1-.25,2.32-.25,3.36,0,.49-.16,1.26-.14,1.68S23.2,53.74,23.5,53.93Z" transform="translate(-2.57 -3.37)"/><path class="cls-1" d="M21.14,6.55v1a.26.26,0,0,0,.23.22c.14,0,.22-.16.22-.31V6.73c0-.27-.05-.31-.22-.41s-.23.08-.23.23" transform="translate(-2.57 -3.37)"/><path class="cls-1" d="M22.05,5.37h-.23a.46.46,0,0,0-.14.32V7.46c0,.13.09.31.18.31s.28,0,.28-.18v-2c0-.1,0-.1-.09-.18" transform="translate(-2.57 -3.37)"/><path class="cls-1" d="M22.32,6.55v1a.26.26,0,0,0,.23.22c.11,0,.22-.18.22-.27V6.68a.39.39,0,0,0-.22-.36c-.1,0-.23.08-.23.23" transform="translate(-2.57 -3.37)"/><path class="cls-1" d="M20.5,7.73c.16,0,.12.09.19.09s.2-.09.29-.14L20.64,5.5s-.11-.09-.14-.09c-.49,0-.25.68-.19,1a10.09,10.09,0,0,1,.19,1.31" transform="translate(-2.57 -3.37)"/><path class="cls-1" d="M23,7.68a.53.53,0,0,0,.28.14,1.29,1.29,0,0,0,.18-.14c0-.4.5-2.27,0-2.27-.29,0-.5,1.87-.5,2.27" transform="translate(-2.57 -3.37)"/><path class="cls-1" d="M19.5,6.82c.12.25.21,1.14.46,1.14h0c.15,0,0,0,.23-.1h.05l-.41-1.26h-.14c-.15,0-.17.13-.23.23" transform="translate(-2.57 -3.37)"/><path class="cls-1" d="M23.68,7.77a.21.21,0,0,0,.23.19c.2,0,.45-.93.45-1.18a.18.18,0,0,0-.18-.19h-.05c-.19,0-.45.94-.45,1.18" transform="translate(-2.57 -3.37)"/><path class="cls-1" d="M18.42,6.09a10.35,10.35,0,0,0,.81,2.09c.14,0,.27,0,.27-.18a6.42,6.42,0,0,0-.36-1.13c-.07-.18-.3-1-.5-1h0a.2.2,0,0,0-.18.22" transform="translate(-2.57 -3.37)"/><path class="cls-1" d="M24.36,8c.07.08.1.18.23.18h0c.21,0,.4-.76.48-1A9.32,9.32,0,0,0,25.5,6.1s-.12-.23-.23-.23h-.16Z" transform="translate(-2.57 -3.37)"/><path class="cls-1" d="M18.05,7.32v0c0,.24.46,1,.68,1h.05c.09,0,.18-.08.18-.14s-.5-1.13-.68-1.13h-.05a.17.17,0,0,0-.18.18" transform="translate(-2.57 -3.37)"/><path class="cls-1" d="M25,8.23c0,.09.08.18.14.18.29,0,.77-.94.77-1s0,0-.09-.23h-.14c-.18,0-.68,1-.68,1.09" transform="translate(-2.57 -3.37)"/><path class="cls-1" d="M16.78,6.82v0A6.83,6.83,0,0,0,18.1,8.73c.15,0,0,0,.23-.09V8.5A6.83,6.83,0,0,0,17,6.64c-.11,0-.23.06-.23.18" transform="translate(-2.57 -3.37)"/><path class="cls-1" d="M25.54,8.55c0,.07.18.18.27.18a5.74,5.74,0,0,0,.67-.88l.65-.94c0-.11-.1-.27-.23-.27a7.81,7.81,0,0,0-1.36,1.91" transform="translate(-2.57 -3.37)"/><path class="cls-1" d="M16.74,8.18c0,.11.63.91.81.91s.23-.06.23-.18V8.86c0-.1-.67-.95-.86-.95s-.18.13-.18.27" transform="translate(-2.57 -3.37)"/><path class="cls-1" d="M26.09,8.91c.05.08.09.18.22.18h.05a2.84,2.84,0,0,0,.81-.91c0-.14,0-.27-.18-.27h0c-.15,0-.78.84-.86,1" transform="translate(-2.57 -3.37)"/><path class="cls-1" d="M15.51,7.91A8.43,8.43,0,0,0,17.1,9.54c.11,0,.23-.06.23-.18a7.54,7.54,0,0,0-1.59-1.68h-.05c-.12,0-.18.12-.18.23" transform="translate(-2.57 -3.37)"/><path class="cls-1" d="M26.58,9.36a.18.18,0,0,0,.19.18h0A17,17,0,0,0,28.4,8c0-.09-.11-.28-.23-.28h0a6.56,6.56,0,0,0-1.55,1.68" transform="translate(-2.57 -3.37)"/><path class="cls-1" d="M15.65,9.14c0,.19.85.86,1,.86h0a.18.18,0,0,0,.18-.18V9.77A3,3,0,0,0,15.92,9h-.09c-.11,0-.18.13-.18.19" transform="translate(-2.57 -3.37)"/><path class="cls-1" d="M27,9.77l0,.18c.13,0,.09.05.19.05a2.85,2.85,0,0,0,1-.82c0-.11-.06-.23-.18-.23H28c-.23,0-.81.65-.95.82" transform="translate(-2.57 -3.37)"/><path class="cls-1" d="M20.15,12.9a4.26,4.26,0,0,0-1.06,1.58,1.43,1.43,0,0,0,.58,1.79,3.58,3.58,0,0,0,.92.45c.54.2.69,0,.68.63,0,.89.05,1.67.05,2.59,0,.24-.17.59-.41.59s-.7-1.18-.85-1.42a6.23,6.23,0,0,0-1-1.27,5.45,5.45,0,0,0-.64-.5,4.3,4.3,0,0,1-.58-.55,2.58,2.58,0,0,1-.6-1.66,4,4,0,0,1,.59-1.27C17.4,12,16.4,9.73,14.2,9.73h-.32c-1.59,0-3.65,1.8-4.51,2.66a8.64,8.64,0,0,0-2,5.19v.54a9,9,0,0,0,.89,3.65c.52,1,.92,2.1,1.42,3.11.26.52.47,1,.7,1.57s.53,1,.77,1.5c.38.77,1.35,2.11,1.35,3.15v.32l-.12.91a7.77,7.77,0,0,0,1.56-1,13.37,13.37,0,0,0,1.2-1.29,8.5,8.5,0,0,0,1-1.56c.1-.25.62-1.74.69-1.81A4.88,4.88,0,0,0,18,29.1c.49.67,1.59,1.22,1.86,1.64-.29.43-.37.26-.65.94a2,2,0,0,0,0,1.27c.41.88,1,1,1.44,1.64-.42.28-1.23,1.09-1.23,1.73v.18c0,.83.69,1.16,1.23,1.45-.27.4-1.28,1.58-1.18,2.23l.06.36c.57.88.58.64,1.39,1.18A6.3,6.3,0,0,0,21.73,44a4.6,4.6,0,0,0,1-2.22,2.8,2.8,0,0,0,1.41-2V39.4a3.16,3.16,0,0,0-.41-1.09c.35-.52,1-1,1-1.9v-.09a3.37,3.37,0,0,0-.82-2,6.33,6.33,0,0,0,.5-1.59v-.32a2.77,2.77,0,0,0-.82-1.72c1.49-1,3.36-2,3.36-4.45H27a7.63,7.63,0,0,0,.61,2,7.06,7.06,0,0,0,1,1.65,7.21,7.21,0,0,0,2.86,2.36l-.17-.9,0-.14c0-1.34.86-2.35,1.32-3.27s1-2.07,1.48-3.1.91-2.11,1.44-3.14a9,9,0,0,0,.89-3.65v-.54a8.58,8.58,0,0,0-2-5.19c-.86-.86-2.91-2.66-4.5-2.66h-.32a2.92,2.92,0,0,0-2.47,1.38,10.44,10.44,0,0,0-.68,1.23A10.33,10.33,0,0,0,26,13.76v.05c0,.08.59.95.59,1.36A2.59,2.59,0,0,1,26,16.82c-.25.24-.33.32-.59.54a7.84,7.84,0,0,0-.64.5,6,6,0,0,0-1,1.28c-.14.23-.62,1.39-.84,1.39s-.4-.37-.4-.64c0-.93.05-1.72,0-2.63,0-.39,0-.33.28-.4a4.87,4.87,0,0,0,.47-.17,2.9,2.9,0,0,0,.88-.44,1.37,1.37,0,0,0,.53-1.79,3.74,3.74,0,0,0-1.07-1.56c.18-.37-.2-.83-.43-1a2.18,2.18,0,0,0-1.2-.29h-.41a3.2,3.2,0,0,0-.88.26c-.36.17-.35.36-.58.51Zm-8.9-1.41a6.07,6.07,0,0,1,1.24-.71,6.85,6.85,0,0,1,1.71-.24,3,3,0,0,1,2.85,3.22v.05l-.05.41-.34-.33a3,3,0,0,0-1.78-2.53A3.74,3.74,0,0,0,13,11.13a5.55,5.55,0,0,0-.95.15,5.94,5.94,0,0,1-.78.26Zm15.56,2.27a3.05,3.05,0,0,1,2.86-3.22,6.85,6.85,0,0,1,1.71.24,3.55,3.55,0,0,1,.68.32,3.21,3.21,0,0,1,.3.21l.11.1.09.06s.08,0,.06,0l0,.06a5.42,5.42,0,0,0-2-.42,3.42,3.42,0,0,0-1.89.34,2.83,2.83,0,0,0-1.13,1.17c-.21.42-.4,1.49-.74,1.58l-.06-.41ZM21,12.49c0-.32.52-.36.86-.36h.36l.5,0c.12.17.23.1.23.36s-.55.23-.73.23h-.27C21.63,12.77,21,12.71,21,12.49Zm1.22,1c.16,0,.86-.19.86-.18l.06,0a2.22,2.22,0,0,1-1,.28H22a1.77,1.77,0,0,1-1.09-.27,7.1,7.1,0,0,0,.81.14Zm-1.13,1.18c0-.37,0-.5.41-.5a2.91,2.91,0,0,1,.31,0,.56.56,0,0,1,.05.23v0c0,.18-.23.23-.41.23h-.14A.72.72,0,0,1,21.05,14.63Zm1.68.13c0-.2.18-.43.22-.59h.37c.55,0,.8.83.56,1.15s-1.15.34-1.15-.24Zm-11.67,9.8a12.47,12.47,0,0,1,1.11-4.38,7.5,7.5,0,0,1,1-1.73,2.59,2.59,0,0,1,.71-.65,5.41,5.41,0,0,1,1-.41c.21.12.72.45.72.73a1.21,1.21,0,0,1-.77,1c0,.28.27.65.27.95,0,.52-.28.52-.59.68a2.23,2.23,0,0,1,.52,1c.11.58-.34.72-.52,1a.48.48,0,0,1,.23.41.76.76,0,0,1-.5.68c.11.41.5.54.5,1.36,0,.35-.42.52-.73.59.1.13.28.19.41.41a1.28,1.28,0,0,1,.18.59c0,.44-.15.86-.63.86a2.08,2.08,0,0,1-1.27.82c-.52,0-1-.95-1.21-1.34A5.07,5.07,0,0,1,11.06,25Zm18.2,2.23a1.34,1.34,0,0,1,.2-.62c.13-.2.31-.26.39-.38-.34-.08-.72-.22-.72-.64,0-.75.39-.93.5-1.31a.76.76,0,0,1-.5-.68c0-.17.08-.37.22-.41-.18-.25-.63-.39-.52-1a2.44,2.44,0,0,1,.52-1c-.26-.14-.59-.19-.59-.59v-.09a4.24,4.24,0,0,1,.27-.95,1.18,1.18,0,0,1-.77-1c0-.28.51-.61.73-.73a5.33,5.33,0,0,1,1,.43,2.49,2.49,0,0,1,.71.66,6.65,6.65,0,0,1,1,1.7,12.1,12.1,0,0,1,1.11,4.38v.69c0,1.1-.76,3.22-1.72,3.22a2.3,2.3,0,0,1-1.18-.82C29.41,27.65,29.26,27.23,29.26,26.79Zm-8.77-3a2.29,2.29,0,0,1,.24,1.34,29.62,29.62,0,0,0,0,3.14,7.55,7.55,0,0,1-1.37-1.55v-.09c0-.41,1.32-.91,1.32-1.36v-.23c0-.58-1-1-1.63-1H18.6a2.16,2.16,0,0,0-1,.36c-.31.23-.4.55-.59.68l.06-.58V22.79a6.93,6.93,0,0,0-1.27-3A1.44,1.44,0,0,1,17,19.3h.09a2.1,2.1,0,0,1,1.08.51c.41.39.29.56.29,1.31a2,2,0,0,0,1.15,2C20.07,23.3,20.26,23.36,20.49,23.81Zm4.91-3.65c.34-.24.72-.86,1.41-.86h.09a1.44,1.44,0,0,1,1.14.5,6.81,6.81,0,0,0-1.27,3v1.68l.05.59c-.28-.31-.24-.49-.65-.85a1.65,1.65,0,0,0-1.08-.37,3.25,3.25,0,0,0-1.17.29c-.54.27-.46.2-.78.66a1.84,1.84,0,0,1,.46-1.31c.27-.28.75-.29,1.13-.59a2.16,2.16,0,0,0,.65-1.12A4.84,4.84,0,0,0,25.4,20.16Zm-3.49-2.49H22c0,.75.09,1.52.09,2.22s.07,1.45.81,1.45c.28,0,1.37-1.29,1.68-1.49.08,0,.23.14.23.27v.13c0,1.64-.67,1.89-1.58,2.6a1.39,1.39,0,0,0-.68,1.39,12.65,12.65,0,0,1,.13,1.91v2.63c0,.17-1.13.86-1.32,1l-.1-1.14V26.29a13.38,13.38,0,0,1,.11-2,2.08,2.08,0,0,0-.52-1.56c-.18-.14-.5-.15-.76-.32a1.73,1.73,0,0,1-.54-.5,3,3,0,0,1-.42-1.72v0c0-.13.14-.22.22-.27.32.2,1.46,1.49,1.73,1.49s.48-.32.72-.45Zm-4.4,8.57a1.4,1.4,0,0,1,1.31-1.49c.57,0,.74.23,1.05.31-.1.39-1.32.69-1.32,1.64s1.58,2,2,2.58l.05.68c0,.07-.17.14-.23.23C19.26,29.45,17.51,28,17.51,26.24ZM23.86,25c.34-.08.61-.36,1.09-.36h.23c.77,0,1.09.87,1.09,1.68v.14c0,1.86-1.48,2.53-2.57,3.33-.59.42-1.12.82-1.74,1.21s-1.46.59-1.46,1.49v.41l.06.59a1.56,1.56,0,0,1-.73-1.23v0c0-.69.81-1.13,1.26-1.42s1.08-.68,1.63-1.05a8.8,8.8,0,0,0,1.55-1.13c.28-.28,1.14-1.12,1.14-1.57v-.23C25.4,25.88,23.88,25.7,23.86,25Zm-.68.5a4.71,4.71,0,0,0,.71.7c.09.07.79.59.79.62,0,.54-1.12,1.47-1.5,1.72Zm-.73,6.4.73-.54a2.48,2.48,0,0,1,.55,1.27,4.08,4.08,0,0,1-1.31,2.46c-.26.27-1.61,1.84-1.73,2.08a.73.73,0,0,1-.52-.54c-.08-.36.12-.54.24-.78a5.5,5.5,0,0,1,1.12-1A2.41,2.41,0,0,0,22.45,31.87Zm-1.24.64c0-.28.32-.46.52-.5a2.71,2.71,0,0,1,.18.68v.18c0,.39-.27,1-.55,1Zm.47,4.63.82-1C22.47,36.53,22,37.11,21.68,37.14Zm-1,3.58c-.19,0-.46-.28-.46-.45v-.14a4.12,4.12,0,0,1,.71-1.38,2.63,2.63,0,0,1,.49-.55,5.89,5.89,0,0,0,.66-.38c1.05-.61,1.15-1.47,1.45-2.77a1.76,1.76,0,0,1,.38,1.74,4.68,4.68,0,0,1-1,1.4C22.47,38.54,20.73,40.17,20.69,40.72Zm2.2-1.45.38-.37c.24,1,.28,1.17-.35,1.91Zm-.84.77,0,.86v.77c0,.71-.22.74-.32,1.14h-.09a6.69,6.69,0,0,1-.31-1.59A1.54,1.54,0,0,1,22.05,40Z" transform="translate(-2.57 -3.37)"/><path class="cls-1" d="M28.58,53.47a10.92,10.92,0,0,1,.07-1.15c.06-.36,0-.27.33-.3l.51-.09c.71-.08,1.45-.22,2.13-.27l.57,1.07,2.6-.37-4.52-7.54-2.59.45-1.57,8.48Zm.36-3.71.48-2.38,1.29,2.13L29,49.8Z" transform="translate(-2.57 -3.37)"/><path class="cls-1" d="M38.84,51.2v-.13l-3.5-7.44a15.39,15.39,0,0,0-2.13,1.22s1.57,3.27,1.74,3.61,1.69,3.42,1.71,3.61Z" transform="translate(-2.57 -3.37)"/><path class="cls-1" d="M4.57,49.39v0l2.24,1.12a6.73,6.73,0,0,1,.81-1.12c.22,0,2.22,1.12,2.67,1.23l-.1,1.27,2.41,1,.28-8.81c-.47,0-2.08-1-2.45-1,0,0-2.73,2.85-2.92,3.11s-2.78,3-2.94,3.11m6.22-3.59-.09,2.54-1.62-.71Z" transform="translate(-2.57 -3.37)"/><path class="cls-1" d="M23.5,53.93H24l.7-8.08-3.24-.28-1.7,4.19-.9-4.55-3.25-.33L14.78,53l2,.35.75-5.26.89,5.37,2,.33,1.93-5.15c0,1-.25,2.32-.25,3.36,0,.49-.16,1.26-.14,1.68s1.25.09,1.55.28" transform="translate(-2.57 -3.37)"/></svg>