<?xml version="1.0" standalone="no"?>
<!DOCTYPE svg PUBLIC "-//W3C//DTD SVG 20010904//EN"
 "http://www.w3.org/TR/2001/REC-SVG-20010904/DTD/svg10.dtd">
<svg version="1.0" xmlns="http://www.w3.org/2000/svg"
 width="598.000000pt" height="350.000000pt" viewBox="0 0 598.000000 350.000000"
 preserveAspectRatio="xMidYMid meet">

<g transform="translate(0.000000,350.000000) scale(0.100000,-0.100000)"
fill="#000000" stroke="none">
<path d="M3343 2621 c-40 -19 -58 -39 -93 -104 -10 -17 -28 -35 -41 -38 -21
-6 -21 -7 -4 -9 11 -1 15 -4 9 -6 -7 -3 -2 -16 15 -32 14 -16 29 -26 34 -24 4
2 7 -2 7 -9 0 -7 3 -9 7 -6 3 4 11 3 17 -2 6 -5 91 -11 189 -12 98 -1 180 -6
183 -11 3 -4 10 -6 15 -3 5 4 15 3 22 -2 6 -4 21 -9 32 -11 11 -2 26 -5 34 -6
8 -2 18 -11 22 -22 4 -10 8 -13 8 -6 1 8 6 10 14 6 7 -5 6 0 -3 13 -83 116
-157 234 -145 229 8 -3 15 -3 15 0 0 3 -30 19 -67 36 -88 41 -205 50 -270 19z"/>
<path d="M2161 2558 c-8 -13 -20 -32 -27 -44 -14 -20 -12 -20 80 -17 97 3 152
-8 174 -35 6 -9 12 -11 12 -4 0 16 -85 72 -150 99 -69 28 -72 28 -89 1z"/>
<path d="M3902 2215 c0 -16 2 -22 5 -12 2 9 2 23 0 30 -3 6 -5 -1 -5 -18z"/>
<path d="M2300 2169 c0 -22 67 -81 100 -88 37 -8 48 -3 69 36 16 31 16 32 -41
26 -40 -3 -62 1 -90 15 -21 11 -38 16 -38 11z"/>
<path d="M2665 1930 c-3 -5 -2 -10 2 -10 5 0 9 -12 8 -27 0 -16 3 -30 7 -33 4
-3 9 -15 11 -25 5 -30 50 -119 65 -128 6 -4 12 -14 12 -22 0 -7 12 -23 28 -34
15 -12 32 -24 37 -28 13 -10 88 -46 97 -47 3 -1 9 -3 12 -6 4 -5 101 -4 101 0
0 1 9 3 20 5 11 2 21 9 23 14 2 6 9 11 16 11 10 0 36 39 36 54 0 2 -19 11 -42
22 -61 26 -308 178 -368 225 -54 43 -56 44 -65 29z"/>
<path d="M2457 1828 c-28 -38 -47 -90 -47 -127 l0 -26 16 30 c18 36 86 101
114 110 30 10 24 32 -11 39 -46 9 -46 9 -72 -26z"/>
<path d="M2657 1690 c7 -26 29 -44 38 -30 3 5 0 10 -7 10 -9 0 -9 3 2 10 12 8
12 10 -5 10 -17 0 -17 2 -5 10 12 8 11 10 -7 10 -16 0 -20 -5 -16 -20z"/>
<path d="M3242 1608 c-6 -13 -11 -36 -10 -51 0 -16 -5 -34 -11 -40 -8 -8 -11
-8 -11 2 0 7 -4 10 -9 6 -5 -3 -12 -1 -15 4 -7 11 -106 11 -103 -1 4 -21 70
-78 103 -90 18 -6 34 -16 34 -22 0 -5 3 -7 6 -3 3 3 18 1 32 -4 38 -15 45 1
46 93 1 75 -1 85 -23 106 -13 12 -25 22 -26 22 -1 0 -7 -10 -13 -22z"/>
</g>
</svg>
